<svg width="146" height="81" viewBox="0 0 146 81" fill="none" xmlns="http://www.w3.org/2000/svg">
<path d="M2.88675 57.9772C1.10043 54.8831 1.10042 51.0712 2.88675 47.9771L11.0875 33.773C12.8739 30.679 16.1751 28.773 19.7478 28.773L36.1493 28.773C39.722 28.773 43.0233 30.679 44.8096 33.773L53.0104 47.9771C54.7967 51.0712 54.7967 54.8831 53.0104 57.9771L44.8096 72.1813C43.0233 75.2753 39.722 77.1813 36.1494 77.1813L19.7478 77.1813C16.1751 77.1813 12.8739 75.2753 11.0875 72.1813L2.88675 57.9772Z" fill="#1771F1"/>
<path d="M92.9896 57.9772C91.2033 54.8831 91.2033 51.0712 92.9896 47.9771L101.19 33.773C102.977 30.679 106.278 28.773 109.851 28.773L126.252 28.773C129.825 28.773 133.126 30.679 134.912 33.773L143.113 47.9771C144.9 51.0712 144.9 54.8831 143.113 57.9771L134.912 72.1813C133.126 75.2753 129.825 77.1813 126.252 77.1813L109.851 77.1813C106.278 77.1813 102.977 75.2753 101.19 72.1813L92.9896 57.9772Z" fill="#1771F1"/>
<path d="M47.9382 32.9486C46.1518 29.8546 46.1518 26.0426 47.9382 22.9486L56.139 8.74442C57.9253 5.6504 61.2266 3.74441 64.7992 3.74441L81.2008 3.74441C84.7734 3.74441 88.0747 5.6504 89.861 8.74441L98.0618 22.9486C99.8481 26.0426 99.8481 29.8546 98.0618 32.9486L89.861 47.1528C88.0747 50.2468 84.7734 52.1528 81.2008 52.1528L64.7992 52.1528C61.2266 52.1528 57.9253 50.2468 56.139 47.1528L47.9382 32.9486Z" fill="#1771F1"/>
<path d="M19.768 53.08C19.736 50.808 20.568 48.864 22.264 47.248C23.96 45.616 25.984 44.824 28.336 44.872C29.92 44.872 31.344 45.248 32.608 46C33.872 46.736 34.864 47.776 35.584 49.12L32.44 51.256C31.416 49.528 30.04 48.664 28.312 48.664C27.048 48.664 26.008 49.072 25.192 49.888C24.392 50.704 23.992 51.776 23.992 53.104C23.992 54.4 24.392 55.464 25.192 56.296C26.024 57.096 27.064 57.496 28.312 57.496C30.04 57.496 31.416 56.632 32.44 54.904L35.584 57.04C34.864 58.384 33.872 59.432 32.608 60.184C31.344 60.92 29.912 61.288 28.312 61.288C25.976 61.32 23.952 60.528 22.24 58.912C20.544 57.296 19.72 55.352 19.768 53.08Z" fill="white"/>
<path d="M73 16L81.6603 35.5H64.3397L73 16Z" fill="white"/>
<path d="M115.992 62V49.88H111.24V46.16H124.872V49.88H120.12V62H115.992Z" fill="white"/>
</svg>
