<svg width="120" height="33" viewBox="0 0 120 33" fill="none" xmlns="http://www.w3.org/2000/svg">
<path d="M39.1375 14.9786H47.9455C47.3098 13.1759 45.5757 11.8792 43.5418 11.8792C41.5077 11.8792 39.7736 13.1759 39.1375 14.9786ZM49.3648 24.162H43.5418C39.2769 24.162 35.8076 20.7249 35.8076 16.4996C35.8076 12.2743 39.2769 8.83722 43.5418 8.83722C47.8061 8.83722 51.2759 12.2743 51.2759 16.4996C51.2759 17.3398 50.5882 18.0206 49.7406 18.0206H39.1375C39.7741 19.8233 41.5077 21.12 43.5418 21.12H49.3648C50.2129 21.12 50.9001 21.8013 50.9001 22.641C50.9001 23.4812 50.2129 24.162 49.3648 24.162Z" fill="#131313"/>
<path d="M88.2551 14.9786H97.0632C96.427 13.1759 94.6929 11.8792 92.6589 11.8792C90.625 11.8792 88.8908 13.1759 88.2551 14.9786ZM98.4825 24.162H92.6589C88.3946 24.162 84.9248 20.7249 84.9248 16.4996C84.9248 12.2743 88.3946 8.83722 92.6589 8.83722C96.9238 8.83722 100.393 12.2743 100.393 16.4996C100.393 17.3398 99.7059 18.0206 98.8578 18.0206H88.2551C88.8913 19.8233 90.625 21.12 92.6589 21.12H98.4825C99.3301 21.12 100.018 21.8013 100.018 22.641C100.018 23.4812 99.3301 24.162 98.4825 24.162Z" fill="#131313"/>
<path d="M66.8573 24.162H61.0427C56.7779 24.162 53.3086 20.7249 53.3086 16.4996C53.3086 12.2743 56.7779 8.83722 61.0427 8.83722H66.8573C67.7049 8.83722 68.3925 9.51799 68.3925 10.3582C68.3925 11.1979 67.7049 11.8792 66.8573 11.8792H61.0427C58.471 11.8792 56.379 13.9517 56.379 16.4996C56.379 19.0475 58.471 21.1201 61.0427 21.1201H66.8573C67.7049 21.1201 68.3925 21.8013 68.3925 22.641C68.3925 23.4812 67.7049 24.162 66.8573 24.162Z" fill="#131313"/>
<path d="M83.1019 24.1625H78.1599C73.895 24.1625 70.4258 20.7254 70.4258 16.5001V10.3587C70.4258 9.51848 71.1129 8.83771 71.961 8.83771C72.8086 8.83771 73.4962 9.51848 73.4962 10.3587V16.5001C73.4962 19.048 75.5882 21.1206 78.1599 21.1206H83.1019C83.95 21.1206 84.6372 21.8018 84.6372 22.6415C84.6372 23.4817 83.95 24.1625 83.1019 24.1625Z" fill="#131313"/>
<path d="M104.69 24.162C103.841 24.162 103.154 23.4812 103.154 22.641V16.4996C103.154 12.2743 106.624 8.83722 110.888 8.83722H115.83C116.679 8.83722 117.366 9.51799 117.366 10.3582C117.366 11.1979 116.679 11.8792 115.83 11.8792H110.888C108.317 11.8792 106.225 13.9517 106.225 16.4996V22.641C106.225 23.4812 105.537 24.162 104.69 24.162Z" fill="#131313"/>
<path d="M28.0385 4.69348C27.2943 3.95624 26.2659 3.5 25.1299 3.5H24.6901H24.0639H23.8561V16.5C23.8561 20.7251 20.3863 24.1624 16.1219 24.1624C11.8571 24.1624 8.38733 20.7251 8.38733 16.5C8.38733 12.2749 11.8571 8.83758 16.1219 8.83758C16.9695 8.83758 17.6571 9.5186 17.6571 10.3586V20.8632C19.4768 20.2329 20.7856 18.5151 20.7856 16.5V3.5H7.11344C5.97752 3.5 4.94904 3.95624 4.20486 4.69348C3.46026 5.43117 3 6.4499 3 7.57504V25.425C3 26.5501 3.46026 27.5688 4.20486 28.3065C4.94904 29.0437 5.97752 29.5 7.11344 29.5H25.1299C26.2659 29.5 27.2943 29.0437 28.0385 28.3065C28.7831 27.5688 29.2433 26.5501 29.2433 25.425V7.57504C29.2433 6.4499 28.7831 5.43117 28.0385 4.69348Z" fill="#131313"/>
<path d="M14.586 20.8621V12.1367C12.7659 12.7667 11.457 14.4845 11.457 16.4994C11.457 18.5143 12.7659 20.2321 14.586 20.8621Z" fill="#131313"/>
</svg>
