<svg role="img" aria-label="GAUSS logo" data-v-711d997e="" viewBox="0 0 106 44" fill="none" xmlns="http://www.w3.org/2000/svg"><path d="M17.8475 12.0546C18.0017 11.2307 18.0555 10.4625 18.0087 9.74771C17.962 9.03059 17.8078 8.39933 17.5483 7.85162C17.2866 7.3016 16.95 6.87689 16.5363 6.57054C16.1203 6.26652 15.6225 6.11335 15.0405 6.11335C14.1805 6.11335 13.3858 6.37096 12.6473 6.88849C11.9111 7.40835 11.259 8.0837 10.6911 8.92151C10.1231 9.75932 9.64869 10.7201 9.26306 11.8016C8.87976 12.8831 8.61099 14.0017 8.45907 15.1598C8.3352 16.0417 8.26742 16.9956 8.25106 18.0144C8.2347 19.0355 8.35156 19.9801 8.59696 20.8481C8.84237 21.7161 9.24202 22.4332 9.7936 22.9948C10.3475 23.5611 11.1281 23.8396 12.1425 23.8396C12.8483 23.8396 13.6219 23.4822 14.4656 22.7674C15.3093 22.0503 16.0525 21.1289 16.6976 20.001L17.8475 12.0546ZM100.714 7.16235C101.109 5.5169 101.707 5.0365 102.691 4.76728L102.663 3.2959C100.693 3.3075 99.7887 3.94108 98.7182 5.02721C98.4682 4.89029 98.197 4.76264 97.9072 4.65124C97.1243 4.3449 96.1801 4.19405 95.0746 4.19405C94.1257 4.19405 93.2095 4.34722 92.3378 4.65124C91.4637 4.95527 90.6667 5.38926 89.9445 5.95321C89.2223 6.51717 88.624 7.18788 88.1496 7.96302C87.6751 8.74049 87.3783 9.6015 87.2521 10.5461C87.0698 11.92 87.3362 13.0618 88.0584 13.9739C88.7782 14.8883 89.8557 15.7052 91.3024 16.3968C92.2186 16.8331 93.116 17.2068 93.9714 17.585C94.7731 17.9401 95.3901 18.3857 95.8365 18.8893C96.2806 19.393 96.4185 20.1449 96.2712 21.1521C96.1123 22.2452 95.6752 23.141 94.939 23.8257C94.2028 24.5103 93.3427 24.8538 92.3611 24.8538C91.2253 24.8538 90.4213 24.5962 89.9445 24.0763C89.4677 23.5588 89.2971 22.844 89.414 21.9273C89.5098 21.1962 89.7505 20.5116 90.1502 19.871L89.9188 19.3233C89.3368 19.1725 88.7829 19.1562 88.2641 19.2769C87.7429 19.3999 87.2731 19.5972 86.8594 19.871C86.4458 20.1449 86.0998 20.4977 85.8241 20.9224C85.6535 21.1846 85.5249 21.4515 85.4361 21.7207C84.6788 23.2315 82.5614 24.4128 81.2175 24.4616C82.5707 23.2803 83.4004 21.7509 83.6645 19.8687C83.8679 18.4113 83.5406 17.2276 82.7437 16.3295C81.9467 15.429 80.8599 14.6539 79.4763 14.0203C78.9271 13.7697 78.3171 13.5399 77.658 13.3125C76.9989 13.0827 76.4684 12.8506 76.0711 12.6023C75.3933 12.1799 74.9422 11.6879 74.7155 11.1402C74.4841 10.5925 74.4561 9.87768 74.5986 8.99114C74.7295 8.20206 75.0824 7.49886 75.6807 6.88849C76.2767 6.28044 76.9919 5.9741 77.8193 5.9741C78.7705 5.9741 79.4436 6.19457 79.8456 6.63785C80.2452 7.0788 80.3691 7.69381 80.2593 8.48984C80.1541 9.24874 79.8923 10.0726 79.4319 10.9569L79.5231 11.414C80.9043 11.7482 81.9864 11.6508 82.767 11.117C83.55 10.5855 84.0338 9.87768 84.1693 8.99114C84.2488 8.47824 84.1693 7.93285 83.9871 7.37122C83.8024 6.80727 83.4729 6.28973 82.9961 5.81861C82.5216 5.34748 81.8906 4.95759 81.11 4.65356C80.3294 4.34722 79.3828 4.19637 78.2797 4.19637C77.3285 4.19637 76.417 4.34954 75.5429 4.65356C74.6688 4.95759 73.8718 5.39158 73.1519 5.95553C72.4297 6.51949 71.8314 7.1902 71.3546 7.96534C70.8802 8.74281 70.5834 9.60383 70.4572 10.5484C70.2749 11.9223 70.5413 13.0641 71.2612 13.9762C71.9833 14.8906 73.0608 15.7075 74.5075 16.3991C75.4237 16.8354 76.3211 17.2091 77.1765 17.5874C77.9805 17.9425 78.5952 18.388 79.0416 18.8917C79.4857 19.3953 79.6259 20.1472 79.4786 21.1544C79.3197 22.2475 78.8803 23.1434 78.1441 23.828C77.4079 24.5126 76.5502 24.8561 75.5662 24.8561C74.4304 24.8561 73.6264 24.5985 73.1496 24.0786C72.6751 23.5611 72.4999 22.8463 72.619 21.9296C72.7125 21.1985 72.9556 20.5139 73.3553 19.8734L73.1239 19.3256C72.5419 19.1748 71.988 19.1585 71.4668 19.2792C70.9456 19.4022 70.4782 19.5995 70.0645 19.8734C69.6508 20.1472 69.3049 20.5 69.0268 20.9247C68.751 21.3517 68.5804 21.7927 68.522 22.2499C68.4566 22.7372 68.508 23.2385 68.6599 23.7584L68.6692 23.7862C67.7671 24.4128 66.72 24.8074 65.9534 24.8074L65.874 24.8515C65.5935 24.7981 65.3575 24.7076 65.1635 24.5776C64.9344 24.4268 64.7638 24.19 64.6587 23.8698C64.5511 23.5495 64.4974 23.0993 64.4974 22.5191C64.4974 21.3935 64.6703 19.5322 65.049 16.9445C65.1284 16.3945 65.25 15.7168 65.3715 14.9092C65.493 14.1015 65.6239 13.28 65.7641 12.4422C65.902 11.6044 66.0399 10.7805 66.1778 9.97515C66.3157 9.16752 66.4349 8.48984 66.5237 7.93981C66.5868 7.54528 66.6219 7.16467 66.6382 6.79798C66.6546 6.4313 66.6079 6.09478 66.5003 5.79308C66.3928 5.48905 66.1848 5.2152 65.881 4.97151C65.5725 4.72783 65.1565 4.42149 64.5909 4.42149H63.1185L62.3799 5.10612C62.041 7.57313 61.6905 10.0564 61.3212 12.5559C60.9542 15.0554 60.599 17.5363 60.2624 20.0056C59.6174 21.1335 58.8438 22.0781 57.9393 22.8417C57.0348 23.6006 56.2285 23.9835 55.5227 23.9835C54.4803 23.9835 53.7978 23.5495 53.4753 22.6792C53.1528 21.8112 53.0242 20.7529 53.085 19.5043C53.113 18.894 53.1995 18.0631 53.3374 17.0141C53.4753 15.9628 53.6366 14.8442 53.8212 13.6559C54.0035 12.4677 54.1905 11.3096 54.3728 10.1817C54.5574 9.0538 54.7023 8.10923 54.8332 7.34801C54.8846 7.04167 54.9407 6.70979 54.9711 6.34311C55.0015 5.97874 54.9407 5.63526 54.7865 5.31499C54.6345 4.99472 54.3401 4.72783 53.9123 4.51432C53.4846 4.3008 52.8232 4.19405 51.9328 4.19405H51.4723C51.3181 4.19405 51.0867 4.21726 50.7829 4.26367C50.4744 4.30777 50.0607 4.36347 49.5395 4.42381C49.0183 4.48415 48.3125 4.5909 47.4244 4.74408L47.2841 5.74898C47.99 5.87198 48.5415 5.99963 48.9412 6.13655C49.3385 6.2758 49.6377 6.45682 49.8387 6.68658C50.0373 6.91634 50.1542 7.1902 50.1822 7.50815C50.2126 7.82842 50.1986 8.21599 50.1355 8.67319C49.8924 10.4718 49.6377 12.3122 49.3782 14.2036C49.1165 16.0928 48.8641 17.9216 48.6187 19.6854C48.5439 20.2331 48.5088 20.7715 48.5135 21.2983C48.2073 23.1898 45.5079 24.805 43.9537 24.8027C43.5844 24.7424 43.2712 24.6287 43.0095 24.4593C42.75 24.2945 42.5584 24.0508 42.4345 23.7282C42.3106 23.4102 42.2499 22.9438 42.2499 22.3357C42.2803 21.665 42.341 20.8226 42.4345 19.7991C42.528 18.7779 42.6799 17.5224 42.8949 16.0301C43.1403 14.264 43.3483 12.7624 43.5166 11.5301C43.6849 10.2954 43.8391 9.2441 43.977 8.37612C44.1149 7.50583 44.2458 6.8003 44.3697 6.25027C44.4912 5.70257 44.6151 5.22912 44.7366 4.83227L43.4465 4.19405L40.7307 5.88591C40.1184 5.18503 39.4126 4.73015 38.6132 4.51432C37.8163 4.3008 37.0029 4.19405 36.1732 4.19405C34.7639 4.19405 33.42 4.51432 32.1486 5.15486C30.8749 5.7954 29.732 6.64713 28.72 7.71238C27.708 8.77994 26.8549 10.0123 26.1655 11.414C25.4737 12.8158 24.9922 14.2918 24.7164 15.8468C24.5341 17.1557 24.4944 18.4507 24.5996 19.7318C24.7071 21.0105 25.0062 22.1617 25.497 23.1805C25.9878 24.1993 26.6843 25.0232 27.5911 25.6475C28.4956 26.2718 29.6549 26.5828 31.0665 26.5828C32.0177 26.5828 33.0531 26.3855 34.1726 25.9887C35.2945 25.5941 36.3906 24.7401 37.4633 23.4288H37.5545C37.5545 23.763 37.5919 24.1158 37.669 24.4801C37.7461 24.8468 37.8934 25.188 38.1061 25.5083C38.3211 25.8262 38.6039 26.0861 38.9568 26.2857C39.3097 26.483 39.7631 26.5828 40.3147 26.5828H40.5695H40.8219C40.892 26.5828 40.9785 26.5805 41.0766 26.5735C41.9273 26.5828 43.4675 26.6315 45.1012 26.0374C46.4615 25.5407 47.9082 24.5544 48.7916 23.3917C48.9085 23.7839 49.0651 24.1459 49.259 24.4825C49.626 25.123 50.1402 25.6336 50.7992 26.0142C51.4607 26.3948 52.295 26.5851 53.3094 26.5851C54.2606 26.5851 55.296 26.3878 56.4178 25.991C57.5373 25.5964 58.6334 24.7424 59.7062 23.4311H59.7973C59.7973 23.7653 59.8347 24.1181 59.9119 24.4825C59.989 24.8491 60.1362 25.1926 60.3489 25.5106C60.5639 25.8285 60.8467 26.0884 61.202 26.288C61.5526 26.4853 62.0083 26.5851 62.5575 26.5851H62.5669H63.0647C63.1278 26.5851 63.2003 26.5828 63.2797 26.5758C64.1375 26.5874 65.5211 26.5851 66.9888 26.0768L67.2062 26.0397L67.2108 25.9979C67.9143 25.7287 68.6342 25.3319 69.2839 24.8515C69.3751 24.9536 69.4732 25.0511 69.5784 25.1485C70.0388 25.5593 70.6675 25.9028 71.4645 26.1766C72.2638 26.4505 73.2594 26.5874 74.4561 26.5874C75.6223 26.5874 76.6857 26.4714 77.6393 26.2463H77.7468C78.3171 26.179 80.2265 26.4435 82.2786 25.6962C83.3887 25.2924 84.555 24.559 85.4291 23.6748C85.4361 23.7027 85.4431 23.7282 85.4525 23.7561C85.6044 24.2736 85.9129 24.7377 86.371 25.1508C86.8314 25.5616 87.4601 25.9051 88.2594 26.179C89.0564 26.4528 90.0543 26.5897 91.251 26.5897C93.9527 26.5897 96.0842 25.9817 97.6478 24.761C99.2114 23.5425 100.17 21.9157 100.455 19.871C100.66 18.4136 100.331 17.23 99.5362 16.3318C98.7369 15.4313 97.6525 14.6562 96.2665 14.0226C95.7196 13.772 95.1096 13.5422 94.4506 13.3148C93.7891 13.085 93.2586 12.8529 92.8636 12.6046C92.1858 12.1822 91.7348 11.6902 91.5057 11.1425C91.2767 10.5948 91.2463 9.88 91.3912 8.99346C91.5221 8.20438 91.8727 7.50118 92.471 6.89081C93.0693 6.28276 93.7821 5.97642 94.6118 5.97642C95.563 5.97642 96.2385 6.1969 96.6358 6.64017C96.7714 6.7887 96.8742 6.9558 96.9467 7.14378C96.519 7.67989 96.1964 8.35059 96.0959 8.94008C95.9113 10.0239 95.8552 11.3885 97.337 11.5719C98.1783 11.6763 99.0338 11.4744 99.5596 11.1193C100.343 10.5878 100.829 9.88 100.964 8.99346C101.044 8.48056 100.964 7.93517 100.78 7.37354C100.759 7.30392 100.733 7.23661 100.707 7.16931L100.714 7.16235ZM39.1484 11.6763C38.8306 14.4543 38.3258 17.2369 37.9261 20.0033C37.2834 21.1312 36.5378 22.0526 35.6941 22.7697C34.8504 23.4845 34.0745 23.8419 33.371 23.8419C32.359 23.8419 31.576 23.5611 31.0244 22.9971C30.4729 22.4355 30.0732 21.7184 29.8278 20.8504C29.5824 19.9824 29.4656 19.0379 29.4819 18.0167C29.4983 16.9956 29.5661 16.044 29.6899 15.1621C29.8442 14.0041 30.1129 12.8831 30.4939 11.8039C30.8772 10.7225 31.354 9.76164 31.9219 8.92383C32.4899 8.08602 33.1419 7.41067 33.8781 6.89081C34.6143 6.37328 35.4113 6.11567 36.2714 6.11567C36.8533 6.11567 37.3512 6.26884 37.7648 6.57286C38.1809 6.87921 38.5174 7.30392 38.7768 7.85394C39.0386 8.40165 39.1929 9.03291 39.2373 9.75004C39.249 9.97051 39.256 10.1956 39.2489 10.4231C39.2443 10.8431 39.1975 11.2586 39.1484 11.6763ZM16.0993 23.4311C15.0265 24.7401 13.9514 25.5941 12.8787 25.991C11.8059 26.3878 10.7939 26.5851 9.84034 26.5851C8.43103 26.5851 7.27179 26.2718 6.3673 25.6498C5.46282 25.0255 4.76634 24.2016 4.27554 23.1828C3.78473 22.1617 3.48324 21.0105 3.37806 19.7341C3.27055 18.453 3.30795 17.158 3.49259 15.8491C3.76837 14.2942 4.25217 12.8181 4.94163 11.4164C5.63343 10.0146 6.48416 8.78226 7.49616 7.7147C8.50582 6.64945 9.65103 5.7954 10.9248 5.15718C12.1985 4.51664 13.5401 4.19637 14.9517 4.19637C15.7791 4.19637 16.5924 4.30312 17.3917 4.51664C18.191 4.73015 18.8945 5.18735 19.5092 5.88823L20.0444 6.01123C21.6267 4.33562 22.412 3.32375 24.9127 3.31214L24.9408 4.78121C23.9545 5.05042 23.3562 5.53315 22.9635 7.17627H22.9612L22.9355 7.30624C22.7672 8.13012 22.606 9.04219 22.4517 10.0494C22.2975 11.0543 22.1362 12.2031 21.9679 13.4981C21.7996 14.7931 21.608 16.3411 21.393 18.1374C20.9933 21.2449 20.603 23.9719 20.2197 26.3159C19.8364 28.6622 19.3994 30.6952 18.9086 32.4173C18.4178 34.1393 17.8498 35.5712 17.2048 36.7131C16.562 37.8572 15.7767 38.7623 14.8582 39.433C14.1524 39.9204 13.4162 40.2546 12.6496 40.4379C11.8854 40.619 11.1164 40.7095 10.3498 40.7095C9.82865 40.7095 9.25371 40.6491 8.62267 40.5285C7.99397 40.4078 7.41202 40.2151 6.87681 39.9575C6.66413 39.8554 6.4678 39.7417 6.2855 39.6187C4.72895 38.767 3.79408 36.8755 4.88086 35.114C5.58669 33.9699 7.40735 34.3528 8.14355 34.4897L9.2911 35.7267C9.10647 36.3348 9.01532 36.901 9.01532 37.4186C9.01532 37.9059 9.09946 38.2796 9.26773 38.5395C9.43835 38.7971 9.65103 38.9573 9.91279 39.0176C10.1746 39.0803 10.4667 39.064 10.7869 38.9735C11.1094 38.8807 11.4366 38.7136 11.7755 38.4699C13.0329 37.5253 13.9841 35.8497 14.6292 33.4431C15.2719 31.0364 15.7954 27.7014 16.1928 23.4335H16.0993V23.4311Z" fill="currentColor"></path></svg>
